<svg width="50" height="50" viewBox="0 0 60 60" fill="none" xmlns="http://www.w3.org/2000/svg">
<rect width="60" height="60" rx="23" fill="#F1F1FC"/>
<g clip-path="url(#clip0_1001_8554)">
<path d="M38.5 18H34C32.897 18 32 18.897 32 20V21.785C32 21.943 32.075 22.093 32.202 22.186C32.329 22.282 32.493 22.31 32.645 22.263C33.24 22.081 33.764 21.999 33.999 21.999C34.55 21.999 34.999 22.447 34.999 22.999C34.999 23.551 34.55 23.999 33.999 23.999C33.764 23.999 33.24 23.917 32.645 23.735C32.492 23.688 32.329 23.715 32.202 23.812C32.075 23.906 32 24.055 32 24.213V25.998C32 27.101 32.897 27.998 34 27.998H35.136C35.05 28.387 35 28.742 35 28.998C35 30.101 35.897 30.998 37 30.998C38.103 30.998 39 30.101 39 28.998C39 28.742 38.95 28.387 38.864 27.998H40C41.103 27.998 42 27.101 42 25.998V21.5C42 19.57 40.43 18 38.5 18ZM41 26C41 26.552 40.551 27 40 27H38.215C38.057 27 37.908 27.075 37.813 27.202C37.719 27.329 37.69 27.494 37.736 27.645C37.917 28.24 37.999 28.764 37.999 28.999C37.999 29.551 37.55 29.999 36.999 29.999C36.448 29.999 35.999 29.551 35.999 28.999C35.999 28.764 36.082 28.239 36.262 27.645C36.308 27.494 36.28 27.329 36.185 27.202C36.09 27.075 35.941 27 35.783 27H33.998C33.447 27 32.998 26.552 32.998 26V24.863C33.387 24.95 33.743 25 33.998 25C35.101 25 35.998 24.103 35.998 23C35.998 21.897 35.101 21 33.998 21C33.743 21 33.387 21.05 32.998 21.137V20C32.998 19.448 33.447 19 33.998 19H38.498C39.876 19 40.998 20.121 40.998 21.5V26H41ZM35 32H33.215C33.057 32 32.908 32.075 32.813 32.202C32.719 32.329 32.69 32.494 32.736 32.645C32.917 33.24 32.999 33.764 32.999 33.999C32.999 34.551 32.55 34.999 31.999 34.999C31.448 34.999 30.999 34.551 30.999 33.999C30.999 33.764 31.082 33.239 31.262 32.645C31.308 32.494 31.28 32.329 31.185 32.202C31.09 32.075 30.941 32 30.783 32H27.998V25C27.998 23.897 27.101 23 25.998 23H21.5C19.57 23 18 24.57 18 26.5V38.5C18 40.43 19.57 42 21.5 42H33.5C35.43 42 37 40.43 37 38.5V34C37 32.897 36.103 32 35 32ZM19 26.5C19 25.121 20.122 24 21.5 24H26C26.551 24 27 24.448 27 25V32H24.864C24.95 31.611 25 31.256 25 31C25 29.897 24.103 29 23 29C21.897 29 21 29.897 21 31C21 31.256 21.05 31.611 21.136 32H19V26.5ZM27 41H21.5C20.122 41 19 39.879 19 38.5V33H21.785C21.943 33 22.092 32.925 22.187 32.798C22.281 32.671 22.31 32.506 22.264 32.355C22.083 31.76 22.001 31.236 22.001 31.001C22.001 30.449 22.45 30.001 23.001 30.001C23.552 30.001 24.001 30.449 24.001 31.001C24.001 31.236 23.918 31.761 23.738 32.355C23.692 32.506 23.72 32.671 23.815 32.798C23.91 32.925 24.059 33 24.217 33H27.002V35.137C26.613 35.05 26.257 35 26.002 35C24.899 35 24.002 35.897 24.002 37C24.002 38.103 24.899 39 26.002 39C26.257 39 26.613 38.95 27.002 38.863V41H27ZM36 38.5C36 39.879 34.878 41 33.5 41H28V38.215C28 38.057 27.925 37.907 27.798 37.814C27.671 37.718 27.506 37.691 27.355 37.737C26.76 37.919 26.236 38.001 26.001 38.001C25.45 38.001 25.001 37.553 25.001 37.001C25.001 36.449 25.45 36.001 26.001 36.001C26.236 36.001 26.76 36.083 27.355 36.265C27.506 36.31 27.67 36.283 27.798 36.188C27.925 36.094 28 35.945 28 35.787V33.002H30.136C30.05 33.391 30 33.746 30 34.002C30 35.105 30.897 36.002 32 36.002C33.103 36.002 34 35.105 34 34.002C34 33.746 33.95 33.391 33.864 33.002H35C35.551 33.002 36 33.45 36 34.002V38.502V38.5Z" fill="#00006C"/>
</g>
<defs>
<clipPath id="clip0_1001_8554">
<rect width="24" height="24" fill="white" transform="translate(18 18)"/>
</clipPath>
</defs>
</svg>
