<svg width="50" height="50" viewBox="0 0 60 60" fill="none" xmlns="http://www.w3.org/2000/svg">
<path opacity="0.21" fill-rule="evenodd" clip-rule="evenodd" d="M0 30V37C0 49.7025 10.2975 60 23 60H30H37C49.7025 60 60 49.7025 60 37V30V23C60 10.2975 49.7025 0 37 0H30H23C10.2975 0 0 10.2975 0 23V30Z" fill="#97C6FD"/>
<g clip-path="url(#clip0_1001_8589)">
<path d="M33.1079 32.918L32.2242 32.0344L34.4098 29.8488L34.7646 29.494L34.4085 29.1404L32.2277 26.9751L33.1101 26.0927L35.2932 28.2758L33.1079 32.918ZM33.1079 32.918L35.2934 30.7324C35.9699 30.056 35.9703 28.954 35.2934 28.2761L33.1079 32.918ZM23.7068 28.2758L25.8899 26.0927L26.7735 26.9764L24.5902 29.1597L24.2354 29.5145L24.5915 29.8681L26.7745 32.0356L25.8921 32.918L23.7066 30.7324C23.0301 30.056 23.0297 28.9537 23.7068 28.2758ZM40.75 35.375H42.5V38.25C42.5 39.8346 41.2096 41.125 39.625 41.125H19.375C17.7904 41.125 16.5 39.8346 16.5 38.25V35.375H18.25H18.75V34.875V21.875H40.25V34.875V35.375H40.75ZM20 34.875V35.375H20.5H25.8211L26.7997 36.3536L26.9461 36.5H27.1532H31.8468H32.0539L32.2003 36.3536L33.1789 35.375H38.5H39V34.875V23.625V23.125H38.5H20.5H20V23.625V34.875ZM41.25 37.125V36.625H40.75H33.9032H33.6961L33.5497 36.7714L32.5711 37.75H26.4289L25.4503 36.7714L25.3039 36.625H25.0968H18.25H17.75V37.125V38.25C17.75 39.146 18.479 39.875 19.375 39.875H39.625C40.521 39.875 41.25 39.146 41.25 38.25V37.125Z" fill="#00295A" stroke="#3468B5"/>
</g>
<defs>
<clipPath id="clip0_1001_8589">
<rect width="27" height="27" fill="white" transform="translate(16 18)"/>
</clipPath>
</defs>
</svg>
