<svg width="60" height="60" viewBox="0 0 60 60" fill="none" xmlns="http://www.w3.org/2000/svg">
<path opacity="0.21" fill-rule="evenodd" clip-rule="evenodd" d="M0 30V37C0 49.7025 10.2975 60 23 60H30H37C49.7025 60 60 49.7025 60 37V30V23C60 10.2975 49.7025 0 37 0H30H23C10.2975 0 0 10.2975 0 23V30Z" fill="#A6FCBC"/>
<g clip-path="url(#clip0_125_5150)">
<path d="M26.7213 30.5479L26.7214 30.5479L28.6609 28.6678C28.7769 28.5554 28.7794 28.3719 28.6675 28.2565L26.7213 30.5479ZM26.7213 30.5479L26.7131 30.5561M26.7213 30.5479L26.7131 30.5561M26.7131 30.5561C26.5301 30.7392 26.2847 30.8344 26.032 30.8344C25.7774 30.8344 25.5235 30.7375 25.3292 30.5439L25.3293 30.5438M26.7131 30.5561L25.3293 30.5438M25.3293 30.5438L25.3192 30.5341M25.3293 30.5438L25.3192 30.5341M25.3192 30.5341L24.6103 29.8533C24.6103 29.8532 24.6102 29.8532 24.6101 29.8531C24.4934 29.7405 24.4907 29.5561 24.6015 29.4409C24.7136 29.3244 24.8993 29.3217 25.014 29.4321L25.0141 29.4322M25.3192 30.5341L25.0141 29.4322M25.0141 29.4322L25.5068 29.9061L26.0288 30.4083M25.0141 29.4322L26.0288 30.4083M26.0288 30.4083L26.5488 29.9041M26.0288 30.4083L26.5488 29.9041M26.5488 29.9041L28.2544 28.2506M26.5488 29.9041L28.2544 28.2506M28.2544 28.2506C28.2545 28.2504 28.2547 28.2503 28.2548 28.2502M28.2544 28.2506L28.2548 28.2502M28.2548 28.2502C28.3712 28.138 28.556 28.1415 28.6675 28.2565L28.2548 28.2502ZM30.5413 35.4583H33.6663C33.8271 35.4583 33.958 35.5892 33.958 35.75C33.958 35.9108 33.8271 36.0417 33.6663 36.0417H30.5413C30.3806 36.0417 30.2497 35.9108 30.2497 35.75C30.2497 35.5892 30.3806 35.4583 30.5413 35.4583ZM30.5413 22.9583H33.6663C33.8271 22.9583 33.958 23.0892 33.958 23.25C33.958 23.4108 33.8271 23.5417 33.6663 23.5417H30.5413C30.3806 23.5417 30.2497 23.4108 30.2497 23.25C30.2497 23.0892 30.3806 22.9583 30.5413 22.9583ZM31.583 29.2083H33.6663C33.8271 29.2083 33.958 29.3392 33.958 29.5C33.958 29.6608 33.8271 29.7917 33.6663 29.7917H31.583C31.4222 29.7917 31.2913 29.6608 31.2913 29.5C31.2913 29.3392 31.4222 29.2083 31.583 29.2083ZM25.0413 35.75C25.0413 35.3017 25.4056 34.9375 25.8538 34.9375C26.3021 34.9375 26.6663 35.3017 26.6663 35.75C26.6663 36.1983 26.3021 36.5625 25.8538 36.5625C25.4056 36.5625 25.0413 36.1983 25.0413 35.75ZM26.6663 23.25C26.6663 23.6983 26.3021 24.0625 25.8538 24.0625C25.4056 24.0625 25.0413 23.6983 25.0413 23.25C25.0413 22.8017 25.4056 22.4375 25.8538 22.4375C26.3021 22.4375 26.6663 22.8017 26.6663 23.25ZM39.1663 22.2083V36.7917C39.1663 39.2493 37.1657 41.25 34.708 41.25H24.2913C21.8337 41.25 19.833 39.2493 19.833 36.7917V22.2083C19.833 19.7507 21.8337 17.75 24.2913 17.75H34.708C37.1657 17.75 39.1663 19.7507 39.1663 22.2083ZM38.583 22.2083C38.583 20.0712 36.8451 18.3333 34.708 18.3333H24.2913C22.1542 18.3333 20.4163 20.0712 20.4163 22.2083V36.7917C20.4163 38.9288 22.1542 40.6667 24.2913 40.6667H34.708C36.8451 40.6667 38.583 38.9288 38.583 36.7917V22.2083Z" stroke="#00B52F" stroke-width="1.5"/>
</g>
<defs>
<clipPath id="clip0_125_5150">
<rect width="25" height="25" fill="white" transform="translate(17 17)"/>
</clipPath>
</defs>
</svg>
