<svg width="20" height="20" viewBox="0 0 20 20" fill="none" xmlns="http://www.w3.org/2000/svg">
<path d="M20 16.6666V4.99961C20 4.33655 19.7366 3.70065 19.2678 3.2318C18.7989 2.76295 18.163 2.49955 17.5 2.49955H16.6667C16.6666 2.11264 16.5767 1.73103 16.4041 1.38476C16.2315 1.03849 15.9809 0.736999 15.672 0.504029C15.3631 0.271058 15.0044 0.112963 14.624 0.042186C14.2436 -0.0285906 13.852 -0.0101166 13.48 0.0961538L10.98 0.811172C10.6162 0.915231 10.281 1.10108 10 1.35452C9.71901 1.10108 9.38381 0.915231 9.02 0.811172L6.52 0.0961538C6.14798 -0.0101166 5.75638 -0.0285906 5.37601 0.042186C4.99564 0.112963 4.63689 0.271058 4.32799 0.504029C4.0191 0.736999 3.76849 1.03849 3.59589 1.38476C3.42329 1.73103 3.33341 2.11264 3.33333 2.49955H2.5C1.83696 2.49955 1.20107 2.76295 0.732233 3.2318C0.263392 3.70065 0 4.33655 0 4.99961L0 16.6666H9.16667V18.3333H5.83333V20H14.1667V18.3333H10.8333V16.6666H20ZM10.8333 3.21457C10.8334 3.03358 10.8924 2.85753 11.0014 2.71304C11.1104 2.56856 11.2635 2.46349 11.4375 2.41371L13.9375 1.69953C14.012 1.67796 14.0891 1.66675 14.1667 1.66619C14.3877 1.66619 14.5996 1.75399 14.7559 1.91028C14.9122 2.06656 15 2.27853 15 2.49955V7.70468L10.8333 8.89471V3.21457ZM5 2.49955C5.00019 2.37064 5.03027 2.24354 5.0879 2.12823C5.14552 2.01292 5.2291 1.91255 5.33208 1.83501C5.43506 1.75747 5.55462 1.70488 5.68136 1.68137C5.8081 1.65786 5.93857 1.66408 6.0625 1.69953L8.5625 2.41371C8.73651 2.46349 8.88958 2.56856 8.99859 2.71304C9.10759 2.85753 9.16659 3.03358 9.16667 3.21457V8.89471L5 7.70468V2.49955ZM1.66667 4.99961C1.66667 4.77859 1.75446 4.56663 1.91074 4.41034C2.06702 4.25406 2.27899 4.16626 2.5 4.16626H3.33333V8.96138L10 10.8664L16.6667 8.96138V4.16626H17.5C17.721 4.16626 17.933 4.25406 18.0893 4.41034C18.2455 4.56663 18.3333 4.77859 18.3333 4.99961V14.9999H1.66667V4.99961Z" fill="#252525" fill-opacity="0.6"/>
</svg>
