<svg width="20" height="20" viewBox="0 0 25 25" fill="none" xmlns="http://www.w3.org/2000/svg">
<path d="M19.7917 4.16667H15.625V3.125C15.625 1.40208 14.2229 0 12.5 0C10.7771 0 9.375 1.40208 9.375 3.125V4.16667H5.20833C2.33646 4.16667 0 6.50312 0 9.375V19.7917C0 22.6635 2.33646 25 5.20833 25H19.7917C22.6635 25 25 22.6635 25 19.7917V9.375C25 6.50312 22.6635 4.16667 19.7917 4.16667ZM11.4583 3.125C11.4583 2.55 11.926 2.08333 12.5 2.08333C13.074 2.08333 13.5417 2.55 13.5417 3.125V5.20312C13.5417 5.20312 13.5417 5.20625 13.5417 5.20833C13.5417 5.21042 13.5417 5.21146 13.5417 5.21354V6.25H11.4573V3.125H11.4583ZM22.9167 19.7917C22.9167 21.5146 21.5146 22.9167 19.7917 22.9167H5.20833C3.48542 22.9167 2.08333 21.5146 2.08333 19.7917V9.375C2.08333 7.65208 3.48542 6.25 5.20833 6.25H9.375C9.375 7.39896 10.3094 8.33333 11.4583 8.33333H13.5417C14.6906 8.33333 15.625 7.39896 15.625 6.25H19.7917C21.5146 6.25 22.9167 7.65208 22.9167 9.375V19.7917ZM9.89583 13.0208C9.89583 11.5823 11.0615 10.4167 12.5 10.4167C13.9385 10.4167 15.1042 11.5823 15.1042 13.0208C15.1042 14.4594 13.9385 15.625 12.5 15.625C11.0615 15.625 9.89583 14.4594 9.89583 13.0208ZM17.675 20.574C17.8187 21.1302 17.4833 21.699 16.926 21.8427C16.3656 21.9875 15.801 21.65 15.6573 21.0927C15.3125 19.7573 13.9552 18.75 12.499 18.75C11.0427 18.75 9.68437 19.7573 9.34062 21.0927C9.21979 21.5625 8.79687 21.875 8.33229 21.875C8.24687 21.875 8.15937 21.8646 8.07187 21.8427C7.51458 21.699 7.17917 21.1312 7.32292 20.574C7.90521 18.3094 10.0812 16.6667 12.4979 16.6667C14.9146 16.6667 17.0906 18.3094 17.6729 20.574H17.675Z" fill="#252525" fill-opacity="0.6"/>
</svg>
