<svg width="20" height="20" viewBox="0 0 20 20" fill="none" xmlns="http://www.w3.org/2000/svg">
<path d="M15.8333 1.6666H15V0.833299C15 0.373318 14.6267 0 14.1667 0C13.7067 0 13.3333 0.373318 13.3333 0.833299V1.6666H6.66667V0.833299C6.66667 0.373318 6.29333 0 5.83333 0C5.37333 0 5 0.373318 5 0.833299V1.6666H4.16667C1.86917 1.6666 0 3.53569 0 5.83309V15.8327C0 18.1301 1.86917 19.9992 4.16667 19.9992H7.5C7.96 19.9992 8.33333 19.6258 8.33333 19.1659C8.33333 18.7059 7.96 18.3326 7.5 18.3326H4.16667C2.78833 18.3326 1.66667 17.211 1.66667 15.8327V8.33299H19.1667C19.6267 8.33299 20 7.95967 20 7.49969V5.83309C20 3.53569 18.1308 1.6666 15.8333 1.6666ZM18.3333 6.66639H1.66667V5.83309C1.66667 4.45481 2.78833 3.33319 4.16667 3.33319H15.8333C17.2117 3.33319 18.3333 4.45481 18.3333 5.83309V6.66639ZM15.7325 10.7321L10.9767 15.4877C10.3475 16.1168 10 16.9543 10 17.8451V19.1667C10 19.6267 10.3733 20 10.8333 20H12.155C13.0458 20 13.8825 19.6525 14.5117 19.0234L19.2675 14.2677C19.74 13.7953 20 13.1678 20 12.4995C20 11.8312 19.74 11.2037 19.2683 10.7321C18.3233 9.78709 16.6767 9.78709 15.7325 10.7321ZM18.0892 13.0886L13.3325 17.8443C13.0183 18.1592 12.6 18.3326 12.1542 18.3326H11.6658V17.8443C11.6658 17.3993 11.8392 16.981 12.1542 16.666L16.9108 11.9103C17.225 11.5954 17.7742 11.5954 18.0892 11.9103C18.2467 12.067 18.3333 12.2762 18.3333 12.4995C18.3333 12.7228 18.2467 12.9311 18.0892 13.0886ZM4.16667 11.6662C4.16667 11.2062 4.54 10.8329 5 10.8329H10.8333C11.2933 10.8329 11.6667 11.2062 11.6667 11.6662C11.6667 12.1262 11.2933 12.4995 10.8333 12.4995H5C4.54 12.4995 4.16667 12.1262 4.16667 11.6662ZM9.16667 14.9994C9.16667 15.4594 8.79333 15.8327 8.33333 15.8327H5C4.54 15.8327 4.16667 15.4594 4.16667 14.9994C4.16667 14.5394 4.54 14.1661 5 14.1661H8.33333C8.79333 14.1661 9.16667 14.5394 9.16667 14.9994Z" fill="#252525" fill-opacity="0.6"/>
</svg>
