<svg width="33" height="31" viewBox="0 0 33 31" fill="none" xmlns="http://www.w3.org/2000/svg">
<path d="M22.11 4.66068C22.11 3.52625 22.4577 2.43828 23.0765 1.63612C23.6954 0.833952 24.5348 0.383301 25.41 0.383301C26.2852 0.383301 27.1246 0.833952 27.7435 1.63612C28.3623 2.43828 28.71 3.52625 28.71 4.66068C28.71 5.79511 28.3623 6.88308 27.7435 7.68524C27.1246 8.4874 26.2852 8.93805 25.41 8.93805C24.5348 8.93805 23.6954 8.4874 23.0765 7.68524C22.4577 6.88308 22.11 5.79511 22.11 4.66068ZM31.35 15.3541C31.35 16.5371 30.6127 17.4928 29.7 17.4928H25.2862C24.7655 14.8595 23.2959 12.7142 21.3778 11.705C21.878 11.304 22.4709 11.0767 23.1 11.0767H28.05C29.8702 11.0767 31.35 12.9949 31.35 15.3541ZM7.54875 17.4928H3.3C2.38734 17.4928 1.65 16.5371 1.65 15.3541C1.65 12.9949 3.12984 11.0767 4.95 11.0767H9.9C10.5033 11.0767 11.0705 11.2839 11.5552 11.6515C9.59063 12.6407 8.07984 14.8128 7.54875 17.4928ZM12.8288 13.3758C13.1845 13.2689 13.5609 13.2154 13.9425 13.2154H18.8925C19.3308 13.2154 19.7536 13.2889 20.1558 13.4226C21.7439 13.964 23.0227 15.5012 23.5641 17.4928C23.7445 18.1611 23.8477 18.883 23.8477 19.6315C23.8477 20.8145 23.1103 21.7702 22.1977 21.7702H10.6477C9.735 21.7702 8.99766 20.8145 8.99766 19.6315C8.99766 18.883 9.09563 18.1611 9.28125 17.4928C9.83812 15.441 11.1788 13.8704 12.8339 13.3758H12.8288ZM3.96 4.66068C3.96 3.52625 4.30768 2.43828 4.92655 1.63612C5.54542 0.833952 6.38479 0.383301 7.26 0.383301C8.13521 0.383301 8.97458 0.833952 9.59345 1.63612C10.2123 2.43828 10.56 3.52625 10.56 4.66068C10.56 5.79511 10.2123 6.88308 9.59345 7.68524C8.97458 8.4874 8.13521 8.93805 7.26 8.93805C6.38479 8.93805 5.54542 8.4874 4.92655 7.68524C4.30768 6.88308 3.96 5.79511 3.96 4.66068ZM16.4175 11.0767C15.3235 11.0767 14.2743 10.5134 13.5007 9.51072C12.7271 8.50802 12.2925 7.14806 12.2925 5.73002C12.2925 4.31198 12.7271 2.95202 13.5007 1.94932C14.2743 0.946614 15.3235 0.383301 16.4175 0.383301C17.5115 0.383301 18.5607 0.946614 19.3343 1.94932C20.1079 2.95202 20.5425 4.31198 20.5425 5.73002C20.5425 7.14806 20.1079 8.50802 19.3343 9.51072C18.5607 10.5134 17.5115 11.0767 16.4175 11.0767ZM31.35 26.0476C32.2627 26.0476 33 27.0033 33 28.1862C33 29.3692 32.2627 30.3249 31.35 30.3249H1.65C0.737343 30.3249 0 29.3692 0 28.1862C0 27.0033 0.737343 26.0476 1.65 26.0476H31.35Z" fill="#252525"/>
</svg>
