<svg width="20" height="20" viewBox="0 0 24 24" fill="none" xmlns="http://www.w3.org/2000/svg">
<path d="M2 24C2 21.6762 2.88299 19.4476 4.45472 17.8044C6.02646 16.1612 8.15819 15.2381 10.381 15.2381C12.6037 15.2381 14.7354 16.1612 16.3072 17.8044C17.8789 19.4476 18.7619 21.6762 18.7619 24H16.6667C16.6667 22.2571 16.0044 20.5857 14.8256 19.3533C13.6468 18.1209 12.048 17.4286 10.381 17.4286C8.71388 17.4286 7.11508 18.1209 5.93628 19.3533C4.75748 20.5857 4.09524 22.2571 4.09524 24H2ZM10.381 14.1429C6.9081 14.1429 4.09524 11.2021 4.09524 7.57143C4.09524 3.94071 6.9081 1 10.381 1C13.8538 1 16.6667 3.94071 16.6667 7.57143C16.6667 11.2021 13.8538 14.1429 10.381 14.1429ZM10.381 11.9524C12.6962 11.9524 14.5714 9.9919 14.5714 7.57143C14.5714 5.15095 12.6962 3.19048 10.381 3.19048C8.06571 3.19048 6.19048 5.15095 6.19048 7.57143C6.19048 9.9919 8.06571 11.9524 10.381 11.9524ZM19.0594 16.008C20.5318 16.701 21.7814 17.8239 22.6579 19.2417C23.5344 20.6595 24.0004 22.3119 24 24H21.9048C21.9051 22.7339 21.5556 21.4946 20.8983 20.4311C20.2409 19.3677 19.3037 18.5255 18.1993 18.0058L19.0594 16.008ZM18.3387 3.64281C19.3942 4.09766 20.2966 4.87007 20.9315 5.86201C21.5665 6.85396 21.9052 8.02074 21.9048 9.21429C21.905 10.7172 21.3677 12.166 20.3986 13.2761C19.4294 14.3862 18.0983 15.0774 16.6667 15.214V13.0093C17.4429 12.8931 18.163 12.5197 18.7214 11.9441C19.2797 11.3685 19.6468 10.6209 19.7688 9.81112C19.8908 9.00131 19.7613 8.17194 19.3993 7.44477C19.0372 6.71759 18.4617 6.13091 17.7572 5.77086L18.3387 3.64281Z" fill="black"/>
</svg>
