<svg width="20" height="20" viewBox="0 0 20 20" fill="none" xmlns="http://www.w3.org/2000/svg">
<path d="M0 20C0 17.9793 0.802719 16.0414 2.23157 14.6125C3.66042 13.1837 5.59835 12.381 7.61905 12.381C9.63974 12.381 11.5777 13.1837 13.0065 14.6125C14.4354 16.0414 15.2381 17.9793 15.2381 20H13.3333C13.3333 18.4845 12.7313 17.031 11.6597 15.9594C10.588 14.8878 9.13457 14.2857 7.61905 14.2857C6.10352 14.2857 4.65007 14.8878 3.57844 15.9594C2.5068 17.031 1.90476 18.4845 1.90476 20H0ZM7.61905 11.4286C4.4619 11.4286 1.90476 8.87143 1.90476 5.71429C1.90476 2.55714 4.4619 0 7.61905 0C10.7762 0 13.3333 2.55714 13.3333 5.71429C13.3333 8.87143 10.7762 11.4286 7.61905 11.4286ZM7.61905 9.52381C9.72381 9.52381 11.4286 7.81905 11.4286 5.71429C11.4286 3.60952 9.72381 1.90476 7.61905 1.90476C5.51429 1.90476 3.80952 3.60952 3.80952 5.71429C3.80952 7.81905 5.51429 9.52381 7.61905 9.52381ZM15.5086 13.0505C16.8471 13.6531 17.9831 14.6295 18.7799 15.8624C19.5767 17.0953 20.0004 18.5321 20 20H18.0952C18.0956 18.899 17.7778 17.8213 17.1802 16.8966C16.5826 15.9719 15.7306 15.2396 14.7267 14.7876L15.5086 13.0505ZM14.8533 2.2981C15.8129 2.69362 16.6333 3.36527 17.2105 4.22784C17.7877 5.0904 18.0956 6.10499 18.0952 7.14286C18.0954 8.44978 17.607 9.70956 16.726 10.6748C15.8449 11.6401 14.6348 12.2412 13.3333 12.36V10.4429C14.039 10.3418 14.6937 10.0172 15.2012 9.51663C15.7088 9.01609 16.0426 8.36602 16.1535 7.66184C16.2644 6.95766 16.1466 6.23647 15.8175 5.60415C15.4884 4.97182 14.9652 4.46166 14.3248 4.14857L14.8533 2.2981Z" fill="black"/>
</svg>
