<svg width="50" height="50" viewBox="0 0 60 60" fill="none" xmlns="http://www.w3.org/2000/svg">
<path opacity="0.3" fill-rule="evenodd" clip-rule="evenodd" d="M0 30V37C0 49.7025 10.2975 60 23 60H30H37C49.7025 60 60 49.7025 60 37V30V23C60 10.2975 49.7025 0 37 0H30H23C10.2975 0 0 10.2975 0 23V30Z" fill="#FF9066"/>
<g clip-path="url(#clip0_1001_8567)">
<mask id="path-2-inside-1_1001_8567" fill="white">
<path d="M30 41.66C29.64 41.66 29.28 41.53 29 41.28L25.1 38H21.5C19.57 38 18 36.43 18 34.5V21.5C18 19.57 19.57 18 21.5 18H38.5C40.43 18 42 19.57 42 21.5V34.5C42 36.43 40.43 38 38.5 38H34.97L30.98 41.29C30.7 41.54 30.35 41.66 30 41.66ZM21.5 19C20.12 19 19 20.12 19 21.5V34.5C19 35.88 20.12 37 21.5 37H25.29C25.41 37 25.52 37.04 25.61 37.12L29.66 40.53C29.86 40.71 30.14 40.71 30.33 40.53L34.47 37.11C34.56 37.04 34.67 37 34.79 37H38.5C39.88 37 41 35.88 41 34.5V21.5C41 20.12 39.88 19 38.5 19H21.5ZM35.82 30.89C36.03 30.72 36.07 30.4 35.89 30.19C35.72 29.98 35.4 29.94 35.19 30.12C35.17 30.14 32.82 32.01 30 32.01C27.18 32.01 24.84 30.14 24.81 30.12C24.6 29.95 24.28 29.98 24.11 30.19C23.94 30.4 23.97 30.72 24.18 30.89C24.29 30.98 26.82 33 30 33C33.18 33 35.71 30.97 35.82 30.89Z"/>
</mask>
<path d="M29 41.28L29.999 40.1611L29.9825 40.1463L29.9655 40.132L29 41.28ZM25.1 38L26.0655 36.852L25.6469 36.5H25.1V38ZM34.97 38V36.5H34.4313L34.0157 36.8427L34.97 38ZM30.98 41.29L30.0257 40.1327L30.003 40.1514L29.981 40.1711L30.98 41.29ZM25.61 37.12L24.6135 38.2411L24.6285 38.2545L24.6439 38.2674L25.61 37.12ZM29.66 40.53L30.6634 39.4151L30.6451 39.3985L30.6261 39.3826L29.66 40.53ZM30.33 40.53L29.3747 39.3736L29.3354 39.406L29.2984 39.4411L30.33 40.53ZM34.47 37.11L33.5491 35.926L33.5317 35.9395L33.5147 35.9536L34.47 37.11ZM35.82 30.89L36.7023 32.1031L36.7336 32.0803L36.7638 32.0559L35.82 30.89ZM35.89 30.19L34.7241 31.1338L34.7374 31.1502L34.7511 31.1662L35.89 30.19ZM35.19 30.12L34.2138 28.9811L34.1701 29.0186L34.1293 29.0593L35.19 30.12ZM24.81 30.12L23.8662 31.2859L23.9202 31.3296L23.9779 31.3681L24.81 30.12ZM24.18 30.89L25.1299 29.729L25.1238 29.7241L24.18 30.89ZM30 40.16C30.0002 40.16 29.9998 40.16 29.9989 40.1598C29.998 40.1597 29.9972 40.1595 29.9967 40.1593C29.9956 40.1588 29.9968 40.1591 29.999 40.1611L28.001 42.3989C28.5648 42.9023 29.2837 43.16 30 43.16V40.16ZM29.9655 40.132L26.0655 36.852L24.1345 39.148L28.0345 42.428L29.9655 40.132ZM25.1 36.5H21.5V39.5H25.1V36.5ZM21.5 36.5C20.3984 36.5 19.5 35.6016 19.5 34.5H16.5C16.5 37.2584 18.7416 39.5 21.5 39.5V36.5ZM19.5 34.5V21.5H16.5V34.5H19.5ZM19.5 21.5C19.5 20.3984 20.3984 19.5 21.5 19.5V16.5C18.7416 16.5 16.5 18.7416 16.5 21.5H19.5ZM21.5 19.5H38.5V16.5H21.5V19.5ZM38.5 19.5C39.6016 19.5 40.5 20.3984 40.5 21.5H43.5C43.5 18.7416 41.2584 16.5 38.5 16.5V19.5ZM40.5 21.5V34.5H43.5V21.5H40.5ZM40.5 34.5C40.5 35.6016 39.6016 36.5 38.5 36.5V39.5C41.2584 39.5 43.5 37.2584 43.5 34.5H40.5ZM38.5 36.5H34.97V39.5H38.5V36.5ZM34.0157 36.8427L30.0257 40.1327L31.9343 42.4473L35.9243 39.1573L34.0157 36.8427ZM29.981 40.1711C29.9825 40.1697 29.9851 40.1677 29.9885 40.1657C29.9919 40.1637 29.9951 40.1622 29.9977 40.1612C30.0029 40.1593 30.0039 40.16 30 40.16V43.16C30.6937 43.16 31.4061 42.9204 31.979 42.4089L29.981 40.1711ZM21.5 17.5C19.2916 17.5 17.5 19.2916 17.5 21.5H20.5C20.5 20.9484 20.9484 20.5 21.5 20.5V17.5ZM17.5 21.5V34.5H20.5V21.5H17.5ZM17.5 34.5C17.5 36.7084 19.2916 38.5 21.5 38.5V35.5C20.9484 35.5 20.5 35.0516 20.5 34.5H17.5ZM21.5 38.5H25.29V35.5H21.5V38.5ZM25.29 38.5C25.058 38.5 24.8093 38.4152 24.6135 38.2411L26.6065 35.9989C26.2307 35.6648 25.762 35.5 25.29 35.5V38.5ZM24.6439 38.2674L28.6939 41.6774L30.6261 39.3826L26.5761 35.9726L24.6439 38.2674ZM28.6566 41.6449C29.4119 42.3247 30.5787 42.3606 31.3616 41.6189L29.2984 39.4411C29.4784 39.2705 29.7288 39.165 29.9987 39.165C30.2665 39.165 30.5001 39.268 30.6634 39.4151L28.6566 41.6449ZM31.2853 41.6864L35.4253 38.2664L33.5147 35.9536L29.3747 39.3736L31.2853 41.6864ZM35.3909 38.294C35.2262 38.4221 35.0143 38.5 34.79 38.5V35.5C34.3257 35.5 33.8938 35.6579 33.5491 35.926L35.3909 38.294ZM34.79 38.5H38.5V35.5H34.79V38.5ZM38.5 38.5C40.7084 38.5 42.5 36.7084 42.5 34.5H39.5C39.5 35.0516 39.0516 35.5 38.5 35.5V38.5ZM42.5 34.5V21.5H39.5V34.5H42.5ZM42.5 21.5C42.5 19.2916 40.7084 17.5 38.5 17.5V20.5C39.0516 20.5 39.5 20.9484 39.5 21.5H42.5ZM38.5 17.5H21.5V20.5H38.5V17.5ZM36.7638 32.0559C37.5932 31.3844 37.7895 30.1012 37.0289 29.2138L34.7511 31.1662C34.3505 30.6988 34.4668 30.0556 34.8762 29.7241L36.7638 32.0559ZM37.0559 29.2462C36.3844 28.4168 35.1012 28.2205 34.2138 28.9811L36.1662 31.2589C35.6988 31.6595 35.0556 31.5432 34.7241 31.1338L37.0559 29.2462ZM34.1293 29.0593C34.1566 29.032 34.179 29.0119 34.1856 29.0059C34.1954 28.9971 34.2034 28.9902 34.208 28.9862C34.2172 28.9782 34.2244 28.9722 34.2275 28.9696C34.2345 28.9638 34.2392 28.96 34.2402 28.9592C34.243 28.9569 34.2424 28.9574 34.2378 28.961C34.2291 28.9678 34.2112 28.9815 34.1846 29.0012C34.1315 29.0405 34.0472 29.101 33.9351 29.1757C33.7102 29.3256 33.381 29.528 32.9756 29.7301C32.1483 30.1427 31.0925 30.51 30 30.51V33.51C31.7275 33.51 33.2567 32.9423 34.3144 32.4149C34.8515 32.147 35.2898 31.8781 35.5992 31.6718C35.7544 31.5684 35.8789 31.4795 35.9692 31.4127C36.0143 31.3793 36.0517 31.3508 36.081 31.328C36.0954 31.3168 36.1095 31.3057 36.1225 31.2952C36.1287 31.2902 36.1374 31.2831 36.1472 31.275C36.1518 31.2711 36.1601 31.2642 36.1703 31.2554C36.1753 31.2511 36.1836 31.2438 36.1937 31.2347C36.2006 31.2285 36.2232 31.2081 36.2507 31.1807L34.1293 29.0593ZM30 30.51C27.7294 30.51 25.8002 28.9774 25.6421 28.8719L23.9779 31.3681C23.8798 31.3026 26.6306 33.51 30 33.51V30.51ZM25.7538 28.9541C24.9157 28.2757 23.6481 28.3766 22.9441 29.2462L25.2759 31.1338C24.9119 31.5833 24.2843 31.6243 23.8662 31.2859L25.7538 28.9541ZM22.9441 29.2462C22.2657 30.0843 22.3666 31.3519 23.2362 32.0559L25.1238 29.7241C25.5734 30.0881 25.6143 30.7157 25.2759 31.1338L22.9441 29.2462ZM23.2301 32.0509C23.386 32.1784 26.2673 34.5 30 34.5V31.5C28.7184 31.5 27.524 31.0894 26.6038 30.6342C25.6893 30.1819 25.1248 29.7249 25.1299 29.7291L23.2301 32.0509ZM30 34.5C31.8999 34.5 33.5612 33.8972 34.7276 33.3189C35.3172 33.0265 35.7988 32.7313 36.1435 32.5015C36.4787 32.278 36.7254 32.0862 36.7023 32.1031L34.9377 29.6769C34.7813 29.7907 32.626 31.5 30 31.5V34.5Z" fill="#7A2200" mask="url(#path-2-inside-1_1001_8567)"/>
<path d="M26.75 26C27.3023 26 27.75 25.5523 27.75 25C27.75 24.4477 27.3023 24 26.75 24C26.1977 24 25.75 24.4477 25.75 25C25.75 25.5523 26.1977 26 26.75 26Z" fill="#7A2200"/>
<path d="M33.25 26C33.8023 26 34.25 25.5523 34.25 25C34.25 24.4477 33.8023 24 33.25 24C32.6977 24 32.25 24.4477 32.25 25C32.25 25.5523 32.6977 26 33.25 26Z" fill="#7A2200"/>
</g>
<defs>
<clipPath id="clip0_1001_8567">
<rect width="24" height="24" fill="white" transform="translate(18 18)"/>
</clipPath>
</defs>
</svg>
