<svg width="20" height="20" viewBox="0 0 26 25" fill="none" xmlns="http://www.w3.org/2000/svg">
<path d="M22.3743 2.0835H3.62435C3.07181 2.0835 2.54191 2.30299 2.15121 2.69369C1.76051 3.08439 1.54102 3.6143 1.54102 4.16683V16.6668C1.54102 17.2194 1.76051 17.7493 2.15121 18.14C2.54191 18.5307 3.07181 18.7502 3.62435 18.7502H10.916V20.8335H8.83268V22.9168H17.166V20.8335H15.0827V18.7502H22.3743C22.9269 18.7502 23.4568 18.5307 23.8475 18.14C24.2382 17.7493 24.4577 17.2194 24.4577 16.6668V4.16683C24.4577 3.6143 24.2382 3.08439 23.8475 2.69369C23.4568 2.30299 22.9269 2.0835 22.3743 2.0835ZM22.3743 16.6668H3.62435V4.16683H22.3743V16.6668Z" fill="#252525" fill-opacity="0.6"/>
<path d="M6.75 7.29167V13.5417C6.75 13.8179 6.85975 14.0829 7.0551 14.2782C7.25045 14.4736 7.5154 14.5833 7.79167 14.5833H18.2083C18.4846 14.5833 18.7496 14.4736 18.9449 14.2782C19.1403 14.0829 19.25 13.8179 19.25 13.5417V7.29167C19.25 7.0154 19.1403 6.75045 18.9449 6.5551C18.7496 6.35975 18.4846 6.25 18.2083 6.25H7.79167C7.5154 6.25 7.25045 6.35975 7.0551 6.5551C6.85975 6.75045 6.75 7.0154 6.75 7.29167ZM18.2083 13.5417H7.79167V8.33333H18.2083V13.5417Z" fill="#252525" fill-opacity="0.6"/>
</svg>
